<mxfile host="Electron" modified="2024-03-15T06:53:04.200Z" agent="Mozilla/5.0 (Macintosh; Intel Mac OS X 10_15_7) AppleWebKit/537.36 (KHTML, like Gecko) draw.io/24.0.4 Chrome/120.0.6099.109 Electron/28.1.0 Safari/537.36" etag="YhF5l7doK3kjbY0AFmkG" version="24.0.4" type="device">
  <diagram name="第 1 页" id="p2l52gaC6FdARTDo-5BS">
    <mxGraphModel dx="1026" dy="653" grid="1" gridSize="10" guides="1" tooltips="1" connect="1" arrows="1" fold="1" page="1" pageScale="1" pageWidth="1600" pageHeight="1200" math="0" shadow="0">
      <root>
        <mxCell id="0" />
        <mxCell id="1" parent="0" />
        <mxCell id="Wzhomw82JEuqXSCW09Dh-1" value="……" style="rounded=0;whiteSpace=wrap;html=1;fontSize=24;" vertex="1" parent="1">
          <mxGeometry x="360" y="320" width="120" height="40" as="geometry" />
        </mxCell>
        <mxCell id="Wzhomw82JEuqXSCW09Dh-3" value="Const(1)" style="text;html=1;align=center;verticalAlign=middle;whiteSpace=wrap;rounded=0;fontSize=24;fillColor=#fff2cc;strokeColor=#d6b656;" vertex="1" parent="1">
          <mxGeometry x="250" y="285" width="100" height="30" as="geometry" />
        </mxCell>
        <mxCell id="Wzhomw82JEuqXSCW09Dh-4" value="1" style="rounded=0;whiteSpace=wrap;html=1;fontSize=24;fillColor=#fff2cc;strokeColor=#d6b656;" vertex="1" parent="1">
          <mxGeometry x="360" y="280" width="120" height="40" as="geometry" />
        </mxCell>
        <mxCell id="Wzhomw82JEuqXSCW09Dh-5" value="……" style="rounded=0;whiteSpace=wrap;html=1;fontSize=24;" vertex="1" parent="1">
          <mxGeometry x="600" y="320" width="120" height="40" as="geometry" />
        </mxCell>
        <mxCell id="Wzhomw82JEuqXSCW09Dh-6" value="Const(2)" style="text;html=1;align=center;verticalAlign=middle;whiteSpace=wrap;rounded=0;fontSize=24;fillColor=#f8cecc;strokeColor=#b85450;" vertex="1" parent="1">
          <mxGeometry x="490" y="245" width="100" height="30" as="geometry" />
        </mxCell>
        <mxCell id="Wzhomw82JEuqXSCW09Dh-7" value="1" style="rounded=0;whiteSpace=wrap;html=1;fontSize=24;" vertex="1" parent="1">
          <mxGeometry x="600" y="280" width="120" height="40" as="geometry" />
        </mxCell>
        <mxCell id="Wzhomw82JEuqXSCW09Dh-8" value="2" style="rounded=0;whiteSpace=wrap;html=1;fontSize=24;fillColor=#f8cecc;strokeColor=#b85450;" vertex="1" parent="1">
          <mxGeometry x="600" y="240" width="120" height="40" as="geometry" />
        </mxCell>
        <mxCell id="Wzhomw82JEuqXSCW09Dh-9" value="……" style="rounded=0;whiteSpace=wrap;html=1;fontSize=24;" vertex="1" parent="1">
          <mxGeometry x="840" y="320" width="120" height="40" as="geometry" />
        </mxCell>
        <mxCell id="Wzhomw82JEuqXSCW09Dh-10" value="Add" style="text;html=1;align=center;verticalAlign=middle;whiteSpace=wrap;rounded=0;fontSize=24;fillColor=#d5e8d4;strokeColor=#82b366;" vertex="1" parent="1">
          <mxGeometry x="760" y="285" width="70" height="30" as="geometry" />
        </mxCell>
        <mxCell id="Wzhomw82JEuqXSCW09Dh-11" value="1 + 2" style="rounded=0;whiteSpace=wrap;html=1;fontSize=24;fillColor=#d5e8d4;strokeColor=#82b366;" vertex="1" parent="1">
          <mxGeometry x="840" y="280" width="120" height="40" as="geometry" />
        </mxCell>
        <mxCell id="Wzhomw82JEuqXSCW09Dh-12" value="……" style="rounded=0;whiteSpace=wrap;html=1;fontSize=24;" vertex="1" parent="1">
          <mxGeometry x="120" y="320" width="120" height="40" as="geometry" />
        </mxCell>
      </root>
    </mxGraphModel>
  </diagram>
</mxfile>
